<svg width="43" height="43" viewBox="0 0 43 43" fill="none" xmlns="http://www.w3.org/2000/svg">
<g clip-path="url(#clip0_6_536)">
<path fill-rule="evenodd" clip-rule="evenodd" d="M21.4359 0.499512C9.58242 0.499512 0 10.1245 0 22.0319C0 31.5502 6.13978 39.6072 14.6573 42.4588C15.7222 42.6732 16.1123 41.9955 16.1123 41.4254C16.1123 40.9263 16.0772 39.2152 16.0772 37.4324C10.1142 38.716 8.87248 34.8656 8.87248 34.8656C7.91419 32.3701 6.49432 31.7287 6.49432 31.7287C4.54264 30.4096 6.63648 30.4096 6.63648 30.4096C8.8014 30.5523 9.93739 32.6199 9.93739 32.6199C11.8535 35.8994 14.9412 34.9728 16.1834 34.4023C16.3606 33.0119 16.9288 32.0494 17.5322 31.5148C12.7763 31.0156 7.77247 29.1619 7.77247 20.8909C7.77247 18.5381 8.62369 16.6131 9.97249 15.1159C9.75968 14.5813 9.0142 12.3706 10.1857 9.41182C10.1857 9.41182 11.9957 8.84132 16.0767 11.6221C17.824 11.1507 19.6259 10.911 21.4359 10.9089C23.2459 10.9089 25.0909 11.1588 26.7947 11.6221C30.8762 8.84132 32.6861 9.41182 32.6861 9.41182C33.8577 12.3706 33.1118 14.5813 32.8989 15.1159C34.2833 16.6131 35.0994 18.5381 35.0994 20.8909C35.0994 29.1619 30.0956 30.9797 25.3042 31.5148C26.0852 32.192 26.7592 33.4752 26.7592 35.5074C26.7592 38.3949 26.7241 40.7123 26.7241 41.425C26.7241 41.9955 27.1146 42.6732 28.179 42.4593C36.6966 39.6068 42.8363 31.5502 42.8363 22.0319C42.8714 10.1245 33.2539 0.499512 21.4359 0.499512Z" fill="#24292F"/>
</g>
<defs>
<clipPath id="clip0_6_536">
<rect width="43" height="42" fill="white" transform="translate(0 0.499512)"/>
</clipPath>
</defs>
</svg>
