<svg width="60" height="60" viewBox="0 0 60 60" fill="none" xmlns="http://www.w3.org/2000/svg">
<g clip-path="url(#clip0_6_36)">
<rect width="60" height="60" fill="white"/>
<rect width="60" height="60" rx="4" fill="#6C39FF"/>
<path d="M53.214 27.983C53.1182 29.0122 52.9268 30.0654 52.6395 31.1426C52.3762 32.2197 51.9813 33.2729 51.4547 34.3022C50.952 35.3315 50.3416 36.3248 49.6235 37.2823C48.9294 38.2398 48.1514 39.1254 47.2897 39.9392C46.428 40.7531 45.5064 41.4353 44.525 41.9858C42.4186 43.2305 40.384 43.6733 38.4212 43.3143C37.9904 44.2478 37.3441 44.8343 36.4824 45.0736C35.6446 45.3369 34.8068 45.3369 33.969 45.0736C33.1552 44.8343 32.4371 44.3675 31.8148 43.6733C31.1924 42.9792 30.8812 42.0337 30.8812 40.8369C30.8812 39.6161 30.965 38.3714 31.1326 37.1028C31.3001 35.8341 31.5275 34.6134 31.8148 33.4405C32.2695 31.5016 32.8321 29.6825 33.5023 27.983C35.0821 24.1292 35.9797 21.4244 36.1951 19.8685C36.5063 17.786 37.0808 16.4934 37.9186 15.9908C39.3069 15.1769 40.6234 14.8298 41.8681 14.9495C43.1128 15.0692 44.2378 15.3684 45.2431 15.8471C46.8948 16.6371 48.678 17.9655 50.5929 19.8326C52.6994 21.8672 53.573 24.584 53.214 27.983ZM39.1034 38.7544C40.3242 38.132 41.3056 37.4977 42.0476 36.8514C42.8136 36.1812 43.5317 35.5708 44.2019 35.0203C45.2312 33.991 45.9852 32.7703 46.4639 31.358C47.5171 28.2463 46.8469 25.8885 44.4532 24.2848C44.0942 24.0215 43.5556 23.6624 42.8375 23.2076C42.5024 23.9736 42.2511 24.7755 42.0835 25.6132C41.9399 26.451 41.7364 27.2649 41.4731 28.0548L40.5037 31.2144L39.7138 34.6253C39.6659 35.1041 39.5941 35.5708 39.4984 36.0256C39.4026 36.4565 39.3188 36.9113 39.247 37.39L39.1034 38.7544Z" fill="#35FFDB"/>
<path d="M11.9889 38.9339L11.953 39.7957C11.953 39.9393 11.9769 40.2265 12.0248 40.6574C12.2402 40.9207 12.4676 40.9805 12.707 40.8369C12.8985 40.7172 13.3294 40.3821 13.9996 39.8316C15.1007 38.1799 16.0103 36.5523 16.7283 34.9485C18.38 31.1905 19.5529 27.983 20.247 25.326C20.4624 24.5361 20.6659 23.7582 20.8574 22.9922C21.0728 22.2263 21.2763 21.4483 21.4678 20.6584C21.6832 19.8446 21.9226 19.0068 22.1859 18.1451V18.0015C22.5928 16.5892 23.634 15.4881 25.3096 14.6982C26.9133 13.9083 28.2897 13.7886 29.4386 14.3392C29.9892 14.6025 30.3841 15.0573 30.6235 15.7036C30.8629 16.3259 30.8389 17.1756 30.5517 18.2528C30.0011 19.9044 29.4506 21.6398 28.9001 23.459C28.3495 25.2782 27.7631 27.1093 27.1407 28.9524C26.5184 30.7716 25.8242 32.5549 25.0583 34.3022C24.2923 36.0496 23.4066 37.6533 22.4013 39.1135C20.1752 42.3688 17.5422 44.5231 14.5022 45.5763C14.1671 45.7199 13.8799 45.8037 13.6405 45.8277C13.4251 45.8516 13.102 45.8875 12.6711 45.9354C12.2402 46.0072 11.6897 46.0191 11.0195 45.9713C10.3732 45.9473 9.73888 45.8396 9.11653 45.6481C7.68034 45.2412 6.79469 44.5231 6.45958 43.4938C6.0766 42.0577 5.93298 41.0164 6.02872 40.3701C6.10053 39.6999 6.23218 39.1613 6.42368 38.7544C6.61517 38.3475 6.85453 37.9166 7.14177 37.4618H7.17768C7.39311 37.0549 7.72822 36.7078 8.18301 36.4206C8.66174 36.1334 9.15244 35.9538 9.65511 35.882C10.1817 35.7863 10.6604 35.8222 11.0913 35.9897C11.5461 36.1573 11.8453 36.4804 11.9889 36.9592C12.0129 37.2225 12.0248 37.5576 12.0248 37.9645C12.0248 38.3714 12.0129 38.6946 11.9889 38.9339Z" fill="#35FFDB"/>
</g>
<defs>
<clipPath id="clip0_6_36">
<rect width="60" height="60" fill="white"/>
</clipPath>
</defs>
</svg>
