<svg width="242" height="47" viewBox="0 0 242 47" fill="none" xmlns="http://www.w3.org/2000/svg">
<path d="M216.843 19.5279C219.164 18.5928 220.722 18.5755 221.519 19.476C221.934 19.9609 222.142 20.6362 222.142 21.502V21.7618C223.423 20.2725 225.657 19.0258 228.844 18.0214C232.203 16.9824 234.974 16.688 237.155 17.1383C239.995 17.727 241.588 19.5799 241.935 22.6969C242.212 25.329 241.606 28.6711 240.117 32.7231C239.632 33.7621 239.251 34.6106 238.974 35.2687C238.731 35.8921 238.506 36.4635 238.298 36.983C237.848 37.9527 237.138 39.1129 236.168 40.4636C235.614 41.5026 234.748 42.2992 233.571 42.8533C232.428 43.4074 231.285 43.7191 230.142 43.7884C229.034 43.8923 228.116 43.7191 227.389 43.2689C226.662 42.8533 226.454 42.178 226.766 41.2429C227.562 39.0956 228.22 37.1389 228.74 35.3726C229.259 33.6063 229.796 32.0997 230.35 30.853C230.87 29.0867 230.939 27.9784 230.558 27.5282C230.246 27.1818 229.709 27.2338 228.947 27.684C228.289 28.0996 227.822 28.5845 227.545 29.1386C226.921 29.5889 225.744 31.3898 224.012 34.5414C223.527 35.4072 223.042 36.273 222.558 37.1389C222.107 37.9701 221.674 38.7493 221.259 39.4766C220.878 40.2039 220.532 40.81 220.22 41.2948C219.943 41.7797 219.683 42.0914 219.441 42.2299C219.233 42.4031 219.042 42.507 218.869 42.5416C218.731 42.6109 218.609 42.6802 218.506 42.7494C218.402 42.8187 218.315 43.0438 218.246 43.4248C218.107 44.2213 217.276 44.8101 215.752 45.1911C213.293 45.8144 211.077 45.7106 209.103 44.8794C208.445 44.6023 207.925 44.2213 207.544 43.7365C206.748 42.1433 208.116 36.7233 211.648 27.4762C212.895 24.2207 213.709 22.2813 214.09 21.6579C214.956 20.3418 215.51 19.5972 215.752 19.424C216.029 19.2509 216.393 19.2855 216.843 19.5279Z" fill="#353535"/>
<path d="M188.197 19.8394C188.925 19.3199 189.825 19.1986 190.899 19.4757C191.107 19.5103 191.314 19.5277 191.522 19.5277C192.284 17.9692 193.6 17.1553 195.47 17.086C195.955 17.0514 196.631 16.9648 197.496 16.8263C198.362 16.6878 199.401 16.7224 200.613 16.9302C201.86 17.138 202.951 17.5016 203.886 18.0211C205.93 19.1294 207.159 20.7225 207.575 22.8005C208.406 25.8482 208.285 29.173 207.211 32.7748C206.068 36.7576 204.129 39.9439 201.393 42.3335C200.146 43.4418 198.83 44.1345 197.444 44.4115C196.059 44.7232 194.812 44.8964 193.704 44.931C192.596 44.9657 191.574 44.9657 190.639 44.931C189.739 44.931 188.855 44.8444 187.99 44.6713C186.119 44.2903 184.578 43.4072 183.366 42.0218C181.946 40.4634 181.34 38.039 181.548 34.7489C181.686 31.8397 182.414 28.9132 183.73 25.9694C185.08 22.991 186.57 20.9476 188.197 19.8394ZM197.341 30.2812C196.475 30.5583 195.661 30.6795 194.899 30.6449C194.518 31.0258 194.172 31.4414 193.86 31.8917C193.583 32.3073 193.202 32.7056 192.717 33.0865C192.232 33.4328 191.99 33.5714 191.99 33.5021C191.401 34.3333 190.916 35.1991 190.535 36.0996C190.154 36.9654 190.154 37.8486 190.535 38.749C191.92 38.8876 192.942 38.8529 193.6 38.6451C194.258 38.4373 194.864 38.039 195.418 37.4503C196.007 36.8615 196.457 36.1689 196.769 35.3723C197.392 33.8831 197.583 32.1861 197.341 30.2812Z" fill="#353535"/>
<path d="M175.836 39.9959C175.628 40.7232 175.386 41.3639 175.109 41.918C174.832 42.4722 174.416 42.9917 173.862 43.4765C173.308 43.9614 172.65 44.4116 171.888 44.8272C171.126 45.2775 170.399 45.5892 169.706 45.7623C168.113 46.1087 167.282 45.6411 167.213 44.3597C167.109 44.0133 166.884 43.8055 166.537 43.7363C166.226 43.7016 165.931 43.6151 165.654 43.4765C164.927 43.1648 164.719 42.3163 165.031 40.931C165.585 39.0262 166.191 36.7231 166.849 34.0217C167.507 31.2857 168.356 28.2899 169.395 25.0344C171.853 17.1381 174.901 10.021 178.538 3.68312C178.78 3.37142 179.057 2.97314 179.369 2.48828C179.681 1.96879 180.079 1.50124 180.564 1.08564C181.776 -0.0226173 183.265 -0.282366 185.031 0.306397C184.997 0.756627 185.101 1.17222 185.343 1.55319C185.585 1.89952 185.863 2.26317 186.174 2.64413C186.971 3.54459 187.334 4.35847 187.265 5.08576C183.594 13.7787 180.287 23.4932 177.343 34.2295C176.996 35.4763 176.719 36.5672 176.512 37.5023C176.304 38.4374 176.079 39.2686 175.836 39.9959Z" fill="#353535"/>
<path d="M160.566 39.9959C160.358 40.7232 160.116 41.3639 159.839 41.918C159.562 42.4722 159.146 42.9917 158.592 43.4765C158.038 43.9614 157.38 44.4116 156.618 44.8272C155.856 45.2775 155.129 45.5892 154.436 45.7623C152.843 46.1087 152.012 45.6411 151.942 44.3597C151.838 44.0133 151.613 43.8055 151.267 43.7363C150.955 43.7016 150.661 43.6151 150.384 43.4765C149.657 43.1648 149.449 42.3163 149.76 40.931C150.315 39.0262 150.921 36.7231 151.579 34.0217C152.237 31.2857 153.085 28.2899 154.124 25.0344C156.583 17.1381 159.631 10.021 163.267 3.68312C163.51 3.37142 163.787 2.97314 164.099 2.48828C164.41 1.96879 164.808 1.50124 165.293 1.08564C166.506 -0.0226173 167.995 -0.282366 169.761 0.306397C169.726 0.756627 169.83 1.17222 170.073 1.55319C170.315 1.89952 170.592 2.26317 170.904 2.64413C171.7 3.54459 172.064 4.35847 171.995 5.08576C168.324 13.7787 165.016 23.4932 162.072 34.2295C161.726 35.4763 161.449 36.5672 161.241 37.5023C161.033 38.4374 160.808 39.2686 160.566 39.9959Z" fill="#353535"/>
<path d="M140.55 19.5277C141 18.3848 142.074 17.6056 143.771 17.19C145.364 16.7744 146.853 16.8263 148.239 17.3458C149.659 17.9 150.299 18.8004 150.161 20.0472C149.78 21.2594 149.295 22.7486 148.706 24.5149C148.152 26.2465 147.615 28.0301 147.096 29.8657C145.711 34.5758 144.914 37.9006 144.706 39.84C144.187 42.957 143.321 44.6367 142.109 44.8791C141.762 44.9484 141.433 45.0004 141.122 45.035C140.36 45.0696 139.875 45.2774 139.667 45.6584C139.459 46.0393 139.113 46.3164 138.628 46.4896C138.143 46.6974 137.606 46.784 137.018 46.7493C136.464 46.7493 135.892 46.6108 135.303 46.3337C134.715 46.0913 134.212 45.7277 133.797 45.2428C132.827 44.0653 132.637 42.4895 133.225 40.5154C133.779 36.7404 135.182 31.9437 137.433 26.1253C138.507 23.2508 139.546 21.0516 140.55 19.5277ZM150.369 11.7353C148.672 12.0816 147.286 11.9777 146.213 11.4236C145.174 10.8695 144.568 10.2114 144.395 9.4495C144.221 8.65293 144.464 7.83906 145.122 7.00786C145.884 5.96887 147.027 5.29352 148.55 4.98183C149.243 4.91256 149.745 4.87793 150.057 4.87793C150.369 4.87793 150.75 4.94719 151.2 5.08573C152.343 5.18963 153.087 5.69181 153.434 6.59227C153.919 7.3542 153.953 8.22002 153.538 9.18975C153.157 10.1595 152.1 11.008 150.369 11.7353Z" fill="#353535"/>
<path d="M135.161 20.9306C135.022 22.4198 134.745 23.9436 134.329 25.5021C133.948 27.0606 133.377 28.5845 132.615 30.0737C131.888 31.5629 131.005 33.0002 129.966 34.3855C128.961 35.7708 127.836 37.0523 126.589 38.2298C125.342 39.4073 124.009 40.3944 122.589 41.1909C119.541 42.9918 116.597 43.6325 113.757 43.1131C113.134 44.4637 112.199 45.3123 110.952 45.6586C109.74 46.0395 108.528 46.0395 107.316 45.6586C106.138 45.3123 105.099 44.6369 104.199 43.6325C103.298 42.6282 102.848 41.2602 102.848 39.5285C102.848 37.7622 102.969 35.9613 103.211 34.1258C103.454 32.2902 103.783 30.5239 104.199 28.8269C104.857 26.0216 105.67 23.3895 106.64 20.9306C108.926 15.3546 110.225 11.4411 110.536 9.18995C110.987 6.17687 111.818 4.30669 113.03 3.57939C115.039 2.40187 116.944 1.89969 118.744 2.07285C120.545 2.24602 122.173 2.67893 123.628 3.37159C126.017 4.51448 128.598 6.43662 131.368 9.138C134.416 12.0818 135.68 16.0127 135.161 20.9306ZM114.744 36.5154C116.511 35.615 117.931 34.6972 119.004 33.7621C120.112 32.7924 121.151 31.9093 122.121 31.1127C123.61 29.6235 124.701 27.8572 125.394 25.8138C126.918 21.3115 125.948 17.9002 122.485 15.5798C121.965 15.1988 121.186 14.6793 120.147 14.0213C119.662 15.1295 119.299 16.2897 119.056 17.5019C118.848 18.714 118.554 19.8916 118.173 21.0345L116.77 25.606L115.627 30.5412C115.558 31.2339 115.454 31.9093 115.316 32.5673C115.177 33.1907 115.056 33.8487 114.952 34.5414L114.744 36.5154Z" fill="#353535"/>
<path d="M54.0606 19.4236C54.1299 18.7656 54.5455 18.2288 55.3074 17.8132C56.0694 17.3976 56.9179 17.1898 57.853 17.1898C58.788 17.1898 59.6885 17.4149 60.5543 17.8652C61.4548 18.2808 62.0609 19.008 62.3726 20.047C65.3164 17.4842 68.0004 16.4971 70.4248 17.0859C71.256 17.2591 71.9659 17.7439 72.5547 18.5405C74.321 16.8435 76.2778 15.7352 78.425 15.2157C81.1264 15.1118 83.0658 15.7352 84.2434 17.0859C84.4165 17.2591 84.5897 17.4496 84.7629 17.6574C85.2477 18.1769 85.5248 18.5232 85.5941 18.6963C86.2174 19.6661 86.3906 21.8999 86.1135 25.3978C85.7326 29.9348 84.8668 34.489 83.5161 39.0606C82.7888 41.381 82.1307 42.5759 81.542 42.6451C81.1956 42.7144 80.8666 42.7144 80.5549 42.6451C80.2779 42.5759 80.0181 42.5239 79.7757 42.4893C79.5679 42.4893 79.4467 42.6971 79.412 43.1127C78.7194 44.0131 77.6631 44.4634 76.2431 44.4634C74.8578 44.4634 73.6803 44.0304 72.7105 43.1646C71.6369 42.2642 71.256 41.2078 71.5677 39.9957C71.914 38.7489 72.2949 37.4848 72.7105 36.2034C73.1261 34.8873 73.5764 33.5366 74.0612 32.1513C74.8924 29.727 75.8102 27.1988 76.8146 24.5667C76.0873 25.3979 75.1002 26.9737 73.8534 29.2941C72.6066 31.5799 71.8274 32.9479 71.5157 33.3981C70.9269 34.5756 70.4421 35.5107 70.0611 36.2034C69.6802 36.8614 69.1607 37.3982 68.5026 37.8138C67.8792 38.1948 67.2905 38.4372 66.7363 38.5411C66.2168 38.645 65.7147 38.6623 65.2298 38.5931C64.0869 38.4199 63.273 37.935 62.7882 37.1385C62.6843 36.8614 62.5804 36.5843 62.4765 36.3073C62.3726 36.0302 62.286 35.6492 62.2167 35.1644C62.1128 34.0908 62.2514 32.3418 62.6323 29.9175L62.5284 30.0733C62.944 29.6577 63.0825 29.5538 62.944 29.7616C61.5587 31.7357 60.7275 32.9998 60.4504 33.5539C60.1734 34.1081 59.879 34.7315 59.5673 35.4241C59.2556 36.0822 58.8919 36.8614 58.4763 37.7619C58.0608 38.6277 57.7317 39.4069 57.4893 40.0996C57.2469 40.7923 56.9525 41.4676 56.6062 42.1256C55.0477 44.827 52.3117 45.9179 48.3981 45.3985C47.5669 45.2946 46.8569 45.0868 46.2682 44.7751C45.6794 44.498 45.437 44.0651 45.5409 43.4763C45.818 42.091 46.4587 39.7879 47.463 36.567C49.4371 30.1945 50.6146 26.0905 50.9956 24.255C51.238 23.6316 51.4458 22.9909 51.619 22.3328C51.8268 21.6748 52.0346 21.1033 52.2424 20.6185C52.658 19.4756 53.2641 19.0773 54.0606 19.4236ZM72.0872 32.2552V32.3591C72.1564 32.2206 72.1564 32.1859 72.0872 32.2552Z" fill="#353535"/>
<path d="M37.0061 19.5277C37.4564 18.3848 38.53 17.6056 40.227 17.19C41.8201 16.7744 43.3093 16.8263 44.6947 17.3458C46.1146 17.9 46.7553 18.8004 46.6168 20.0472C46.2358 21.2594 45.751 22.7486 45.1622 24.5149C44.6081 26.2465 44.0713 28.0301 43.5518 29.8657C42.1665 34.5758 41.3699 37.9006 41.1621 39.84C40.6426 42.957 39.7768 44.6367 38.5646 44.8791C38.2183 44.9484 37.8893 45.0004 37.5776 45.035C36.8156 45.0696 36.3308 45.2774 36.123 45.6584C35.9152 46.0393 35.5689 46.3164 35.084 46.4896C34.5991 46.6974 34.0623 46.784 33.4735 46.7493C32.9194 46.7493 32.348 46.6108 31.7592 46.3337C31.1705 46.0913 30.6683 45.7277 30.2527 45.2428C29.2829 44.0653 29.0925 42.4895 29.6812 40.5154C30.2354 36.7404 31.638 31.9437 33.8891 26.1253C34.9628 23.2508 36.0018 21.0516 37.0061 19.5277ZM46.8246 11.7353C45.1276 12.0816 43.7423 11.9777 42.6686 11.4236C41.6296 10.8695 41.0236 10.2114 40.8504 9.4495C40.6772 8.65293 40.9197 7.83906 41.5777 7.00786C42.3396 5.96887 43.4825 5.29352 45.0064 4.98183C45.699 4.91256 46.2012 4.87793 46.5129 4.87793C46.8246 4.87793 47.2056 4.94719 47.6558 5.08573C48.7987 5.18963 49.5433 5.69181 49.8896 6.59227C50.3745 7.3542 50.4091 8.22002 49.9935 9.18975C49.6126 10.1595 48.5563 11.008 46.8246 11.7353Z" fill="#353535"/>
<path d="M8.6652 36.775L8.61325 38.0217C8.61325 38.2295 8.64788 38.6451 8.71715 39.2685C9.02884 39.6495 9.35786 39.7361 9.70419 39.5283C9.98125 39.3551 10.6046 38.8703 11.5744 38.0737C13.1675 35.684 14.4836 33.329 15.5225 31.0086C17.9122 25.5712 19.6092 20.9303 20.6136 17.0861C20.9253 15.9432 21.2197 14.8176 21.4968 13.7093C21.8085 12.6011 22.1028 11.4755 22.3799 10.3326C22.6916 9.15508 23.0379 7.94292 23.4189 6.69613V6.48833C24.0077 4.44498 25.5142 2.85186 27.9385 1.70896C30.2589 0.566074 32.2503 0.392908 33.9127 1.18947C34.7093 1.57043 35.2807 2.22846 35.627 3.16356C35.9734 4.06401 35.9387 5.29349 35.5232 6.85198C34.7266 9.24166 33.93 11.7526 33.1335 14.3847C32.3369 17.0168 31.4884 19.6662 30.5879 22.333C29.6875 24.9651 28.6831 27.5452 27.5749 30.0735C26.4666 32.6017 25.1852 34.9221 23.7306 37.0347C20.5097 41.7448 16.7001 44.8618 12.3017 46.3856C11.8168 46.5934 11.4012 46.7147 11.0549 46.7493C10.7432 46.7839 10.2756 46.8359 9.65224 46.9051C9.02884 47.009 8.23228 47.0264 7.26256 46.9571C6.32746 46.9225 5.40969 46.7666 4.50923 46.4895C2.43124 45.9008 1.14982 44.8618 0.664955 43.3726C0.110826 41.2946 -0.0969726 39.788 0.0415597 38.8529C0.145459 37.8832 0.335941 37.104 0.613006 36.5152C0.89007 35.9264 1.2364 35.3031 1.652 34.645H1.70395C2.01565 34.0563 2.50051 33.5541 3.15854 33.1385C3.8512 32.7229 4.56118 32.4631 5.28847 32.3592C6.0504 32.2207 6.74306 32.2727 7.36646 32.5151C8.02449 32.7575 8.4574 33.2251 8.6652 33.9177C8.69983 34.2987 8.71715 34.7836 8.71715 35.3723C8.71715 35.9611 8.69983 36.4286 8.6652 36.775Z" fill="#353535"/>
</svg>
